#!OML:ASF F:\VICON\USERDATA\INSTALL\rory3\rory3.ASF
:FULLY-SPECIFIED
:DEGREES
19
root 0.3663444120167254 18.71163101814836 -15.760516055295131 3.2467689693618853 7.372402388813184 -3.3751887999281167
lfemur -31.18732663375117 -1.5370951581888446 -20.30795744567619
ltibia 19.157590463393348
lfoot 3.40156779641422 -10.45758926356247
ltoes -23.034976613247984
rfemur 9.8761487639199 9.670944636794282 35.718229420318764
rtibia 55.03445577850352
rfoot 20.412729012655138 -11.250807943154296
rtoes 11.92949505328037
lowerback 13.993876396681788 1.4906261558436464 5.732216927409715
upperback -1.908617615588106 3.1347389113312465 1.1856568377870356
thorax -9.780361000650798 1.234745506203578 -2.182633354316821
lowerneck -20.557081538548612 -6.631896527392896 -1.6583964514645375
upperneck 17.768799847333426 -9.253281673347658 2.6893328682725834
head 8.982631371837657 -4.100209118801664 0.07042256646886624
lclavicle -1.952177198827278e-15 1.1013515796933218e-15
lhumerus -73.61910814784324 -3.7687203034623677 94.52792755070165
lradius 111.56987553758675
lwrist 43.06396984709334
lhand -15.582395484287314 7.645128703420035
lfingers 7.125020000000001
lthumb 10.603259500884839 37.42878058157715
rclavicle -1.952177198827278e-15 1.1013515796933218e-15
rhumerus -40.66319333105352 21.43122533607079 -100.53235759565536
rradius 118.08182524538842
rwrist -18.496459392096195
rhand -17.152724067863964 142.27873228453495
rfingers 7.125020000000001
rthumb 9.06071383827771 37.89876225643252
20
root 0.3744763825384606 18.608430920848527 -14.79865065324881 2.5755068168348485 8.028458554130456 -2.631821085736486
lfemur -28.769426099877148 -2.1951119484335564 -21.35306976241038
ltibia 17.65149877858481
lfoot 4.6733463573144665 -11.964501822545213
ltoes -14.96517226835902
rfemur 7.091544924464596 8.238660580673963 34.099214709749035
rtibia 63.24973382285916
rfoot 21.198452121131076 -12.124357742219068
rtoes 9.715076069468411
lowerback 14.532568498908107 1.307939633504676 5.102748108215003
upperback -1.5930027640449547 2.771403858851053 0.9334444986565134
thorax -9.753420212645322 1.0896285381723214 -2.084476221969682
lowerneck -20.31072001747051 -6.566015167722501 -1.6924916350845056
upperneck 16.77656004683363 -9.147238264153884 2.8969558166509195
head 8.683427052503097 -4.05430027523344 0.16886210199756035
lclavicle -1.9521770592502716e-15 1.1013516288621413e-15
lhumerus -72.28972638327878 -4.381790778259873 94.56210081716088
lradius 111.46699550408096
lwrist 43.16674261110421
lhand -16.17640037582877 7.852206800283483
lfingers 7.125020000000001
lthumb 10.030068398470727 37.65276117383962
rclavicle -1.9521770592502716e-15 1.1013516288621413e-15
rhumerus -41.397974300073685 21.70733192041327 -101.66061783967555
rradius 116.15074476461747
rwrist -10.647367093801634
rhand -31.735670801399323 -10.592436580498479
rfingers 7.125020000000001
rthumb -4.983113492686566 24.97927059652065
21
root 0.29660651501188995 18.041152762383046 -7.6449814375192 2.753336891728196 1.8155469104781918 1.0090641880148534
lfemur -27.246034529029032 -0.7884473006072044 -22.698038161027874
ltibia 20.447600899315624
lfoot 7.398872062326304 -16.08066981698485
ltoes -8.84882812649266
rfemur 7.213604878447541 6.0984576586609975 35.67527423678996
rtibia 72.07672280972041
rfoot 22.446738179242562 -11.473250055360445
rtoes 10.363892389429875
lowerback 14.407724680674091 1.3521326260707682 4.067859434975901
upperback -1.5832954391072818 3.0096260099020116 0.9050160227915284
thorax -9.123423276073293 1.258293482501756 -2.0890129963576576
lowerneck -19.029791678885097 -6.313561453535385 -2.0544308171673515
upperneck 15.519748863282025 -9.138358569483787 3.1001715480091416
head 8.184906925711326 -3.973140021558764 0.33117576329249526
lclavicle -1.952177854811027e-15 1.1013510665817024e-15
lhumerus -69.27885003401371 -1.6026486989855142 95.84570074205745
lradius 111.48410028746669
lwrist 45.000443608632224
lhand -17.809360909431284 7.045160881194678
lfingers 7.125020000000001
lthumb 8.523651199501206 36.86034542696386
rclavicle -1.9521588896042667e-15 1.1013659666900518e-15
rhumerus -41.97409657243517 21.10622190349585 -102.95825275419433
rradius 113.18358365465038
rwrist -10.637864589375804
rhand -28.23304134211134 -104.86781157355944
rfingers 7.125020000000001
rthumb -3.2748957255275757 19.15250060614827
22
root 0.2755383277019535 17.701555415476516 -7.375645964529485 2.5860287684498546 3.13829089863005 1.5810782016218172
lfemur -26.502296434427507 -0.17484441862900485 -24.49989074854802
ltibia 25.47556264200869
lfoot 9.62404231035362 -19.058070295530477
ltoes -3.5068969144033995
rfemur 3.712953416291789 3.2272088373177126 33.26914373796225
rtibia 80.41908924035215
rfoot 21.237159149721478 -10.892822028884458
rtoes 12.066574292470717
lowerback 14.475727873622677 1.2510998736161751 3.673869102696668
upperback -1.4905590918729112 2.882397890082431 0.8536227545875905
thorax -8.97413458076548 1.1806032104743398 -2.1395560903265354
lowerneck -18.521457215338728 -6.182921328145413 -2.1557305462515512
upperneck 14.959173389669337 -9.143738873149243 3.255646751352033
head 8.034158194653347 -3.9237338905182613 0.4334387980148016
lclavicle -1.9521778548113274e-15 1.1013510665814666e-15
lhumerus -67.29792352083004 -2.3210135843897604 96.17268262252239
lradius 110.6481640891122
lwrist 46.10524826231797
lhand -18.937766307603532 7.554838260923922
lfingers 7.125020000000001
lthumb 7.584369481802427 37.478083560859254
rclavicle -1.9521588895892093e-15 1.1013659667018817e-15
rhumerus -42.70414596203497 19.846462049128935 -103.60542786882016
rradius 110.52135532867028
rwrist -12.553064383085625
rhand -28.643306622512156 -123.66315846811895
rfingers 7.125020000000001
rthumb -1.554994490272675 17.26980984400886
